<?xml version="1.0" encoding="utf-8"?>
<!-- Uploaded to: SVG Repo, www.svgrepo.com, Generator: SVG Repo Mixer Tools -->
<svg width="800px" height="800px" viewBox="0 -5.98 72.439 72.439" xmlns="http://www.w3.org/2000/svg">
  <g id="folder_green" data-name="folder green" transform="translate(-1471.005 -248.396)">
    <path id="Path_237" data-name="Path 237" d="M1508.1,263.354c-.482,0-.877.006-.877.011s-.254-.3-.565-.663l-3.878-4.675a2.184,2.184,0,0,0-1.447-.671h-28.419V254.91a.827.827,0,0,1,.827-.83H1506.4c.453,0,.829,0,.829,0s.238-.284.532-.631l3.675-4.417a2.013,2.013,0,0,1,1.367-.64h27.911a.831.831,0,0,1,.833.828v14.13Z" fill="#163844"/>
    <path id="Path_238" data-name="Path 238" d="M1508.1,263.354c-.482,0-.877.006-.877.011s-.254-.3-.565-.663l-3.878-4.675a2.184,2.184,0,0,0-1.447-.671h-25.724v-1.791h63.226v7.789Z" fill="#f4f4f4"/>
    <path id="Path_239" data-name="Path 239" d="M1471.878,257.356h29.46a2.184,2.184,0,0,1,1.447.671l3.878,4.675c.311.366.565.668.565.663s.4-.011.877-.011h34.466a.879.879,0,0,1,.873.879v43.761a.876.876,0,0,1-.873.876h-70.693a.877.877,0,0,1-.873-.876V258.232A.879.879,0,0,1,1471.878,257.356Z" fill="#a4d322"/>
  </g>
</svg>